<?xml version="1.0" encoding="UTF-8"?>
<svg id="Capa_2" data-name="Capa 2" xmlns="http://www.w3.org/2000/svg" viewBox="0 0 134.9 271">
  <defs>
    <style>
      .cls-1 {
        fill: #f9ddba;
        stroke-width: 0px;
      }
    </style>
  </defs>
  <g id="Capa_1-2" data-name="Capa 1">
    <path class="cls-1" d="m69.81,0c5.67,1.17,10.41,3.52,12.86,8.54,2.58,5.3,2.21,10.45-1.78,15.09-1.18,1.38-.89,2.23,0,3.43,3.88,5.17,7.71,10.37,11.7,15.75-5.08,4.54-10.1,9.02-15.11,13.5-2.23,2-4.48,3.97-6.68,6-3.69,3.39-3.74,7.39-.17,10.73,3.71,3.48,8.45,3.88,12.26.62,6.05-5.17,11.87-10.57,17.79-15.87.27-.24.56-.47,1.24-1.03,2.57,4.57,5.39,8.85,7.45,13.4,2.89,6.38,5.85,12.83,7.64,19.5,2.47,9.24-.17,18.13-4.92,26.44-3.17,5.55-7.58,10.3-13.32,13.89-2.19,1.37-1.73,3.05-1.64,5.03,3.69.1,7.68-.48,10.06,2.61,1.15,1.5,2.01,3.51,2.06,5.3.13,5.42-3.09,7.57-11.95,7.99.8,5.11,1.18,10.27,2.46,15.24,4,15.47,11.41,29.63,22.17,42.24,6.36,7.45,7.43,15.02,2.3,23.23-.17.28-.33.57-.64,1.11,1.07.06,1.82.11,2.57.14,4.97.14,7.76,1.89,8.43,6.16.5,3.19.36,6.52.03,9.75-.36,3.55-2.64,5.95-6.93,6.73v15.47H7.21c0-4.42-.05-8.81.03-13.19.03-1.48-.32-2.31-2.08-2.91-3.78-1.27-4.99-4.21-5.12-7.58-.07-1.85-.02-3.71-.01-5.56.03-5.87,3.15-8.72,9.72-8.87.65-.01,1.3,0,1.79,0-1.11-3.01-2.55-5.81-3.16-8.76-1.25-6.03,1.41-11.1,5.38-15.87,12-14.41,20.05-30.4,23.46-48.17.4-2.07.46-4.2.62-6.31.07-.95.01-1.92.01-3.06-3.92-.16-8.06.32-10.41-3.1-.98-1.43-1.79-3.24-1.79-4.88,0-5.09,3.37-7,13.15-7.88.75-2.04-.19-3.27-2.06-4.55-11.34-7.77-17.32-18.15-19.08-30.83-1.3-9.4,2.36-17.62,6.39-25.82,8.05-16.38,19-31.25,30.13-46.02,1.24-1.65,1.47-2.69.04-4.55-6.43-8.33-1.84-19.52,8.98-22.51.64-.18,1.26-.4,1.89-.6,1.58,0,3.15,0,4.73,0Z"/>
  </g>
</svg>