<?xml version="1.0" encoding="UTF-8"?>
<svg id="Capa_2" data-name="Capa 2" xmlns="http://www.w3.org/2000/svg" viewBox="0 0 224.9 290.27">
  <defs>
    <style>
      .cls-1 {
        fill: #ffe9c7;
        stroke-width: 0px;
      }
    </style>
  </defs>
  <g id="Capa_1-2" data-name="Capa 1">
    <path class="cls-1" d="m175.84,0c-1.39,6.23-2.79,12.47-4.25,18.99,4.14-3.69,7.81-6.96,11.47-10.23-2.5,11.34-1.58,22.37-.08,33.4.21,1.53.21,3.13.66,4.58.46,1.49,1.25,2.91,2.05,4.27,3.03,5.17,6.38,10.17,9.1,15.49,2.52,4.93,4.61,10.12,6.52,15.33,4.16,11.34,8.02,22.79,12.18,34.12,1.08,2.93,2.51,5.84,4.31,8.38,5.31,7.46,8.08,15.6,6.79,24.72-.54,3.82-1.54,7.86-3.44,11.15-2.99,5.18-8.57,7.11-14.16,8.3-2.38.51-4.98.54-7.4.22-6.19-.82-9.38-5.14-11.35-10.57-.81-2.24-1.29-4.61-2.07-6.86-.2-.56-.95-1.23-1.53-1.32-9.14-1.45-16.66-6.11-23.23-12.25-4.75-4.44-8.99-9.42-13.34-14.26-1.35-1.51-2.31-3.37-3.55-5.23-6.73,3.72-11.45,9.01-14.38,15.91-5.59,13.13-4.12,26.46-.77,39.71,2.93,11.6,8.03,22.26,14.13,32.62,3.08,5.23,6.36,6.67,11.95,6.32,7.32-.46,14.7-.11,22.33-.11v34.69h30.12v42.9H0v-42.75h30.16v-34.66h6.91c-1.46-2.42-2.71-4.49-3.95-6.56-10.49-17.42-14.92-36.35-13.49-56.54.89-12.65,3.89-24.94,8.66-36.71,3.02-7.44,6.16-14.89,10.02-21.92,3.07-5.6,7.09-10.73,11.08-15.76,5.82-7.34,12.61-13.75,19.81-19.77,5.67-4.74,11.66-8.82,18.53-11.58,5.36-2.15,10.58-4.78,16.1-6.39,8.67-2.53,17.51-4.52,26.33-6.45,5.07-1.11,10.28-1.61,15.4-2.5.77-.14,1.67-.78,2.09-1.45,1.03-1.64,1.81-3.44,2.9-5.57-3.97.22-7.8.3-11.6.69-5.22.54-10.48,1.04-15.61,2.09-7.02,1.44-14.08,2.95-20.86,5.2-9.79,3.25-19.49,7.06-28.19,12.63-7.31,4.68-14.31,9.97-20.84,15.67-7.25,6.32-12.99,14.06-18.27,22.15-10.39,15.93-15.95,33.64-19.11,52.08-3,17.48-3.15,35.19-1.99,52.9.12,1.86.02,3.73.02,5.6-.23.05-.47.1-.7.15-.39-2.05-.86-4.09-1.17-6.15-1.19-7.99-2.64-15.97-3.39-24-.52-5.56,0-11.21-.01-16.83-.01-12.56,1.73-24.91,4.99-37,3.07-11.37,7.7-22.14,13.92-32.22,5.51-8.94,11.4-17.57,19.53-24.36,4.78-3.99,9.68-7.86,14.81-11.37,4.07-2.79,8.57-4.96,12.9-7.38,8.84-4.95,18.22-8.49,28.18-10.41,3.88-.75,7.88-.99,11.69-1.97,8.62-2.22,17.39-2.03,26.15-1.97,3.71.02,7.42.48,11.13.55,1.08.02,2.4-.31,3.23-.96,6.54-5.1,13-10.31,19.45-15.52.3-.24.33-.81.49-1.22.17,0,.35,0,.52,0Z"/>
  </g>
</svg>