<?xml version="1.0" encoding="UTF-8"?>
<svg id="Capa_2" data-name="Capa 2" xmlns="http://www.w3.org/2000/svg" viewBox="0 0 195.69 369.52">
  <defs>
    <style>
      .cls-1, .cls-2 {
        stroke-width: 0px;
      }

      .cls-2 {
        fill: #fff;
      }
    </style>
  </defs>
  <g id="Capa_1-2" data-name="Capa 1">
    <g>
      <path class="cls-2" d="m65.24,195.28c-1.47,33.98-13.12,67.62-38.86,96.32-2.48,2.76-7.08,4.61-11.01,5.31-9.53,1.7-12.53,5.91-9.28,14.36.61,1.59,1.07,4.07.2,5.2-9.47,12.39-7.59,23.92,1.26,33.62-.79,5.72-3.51,11.64-1.47,14.14,2.61,3.19,9.04,5.01,13.85,5.04,52.2.34,104.41.33,156.61,0,4.5-.03,10.87-1.86,12.93-4.9,1.96-2.89-.6-8.48-1.36-14.34,10.5-10.93,9.94-23.64-.77-36.12,5.92-9.37,3.68-16.15-6.06-16.51-6.79-.25-10.38-3.32-14-7.61-24.14-28.59-35.54-61.39-36.96-95.34,5.13-4.13,11-6.64,11.96-10.28.85-3.25-3.73-7.75-6.71-13.13,2.97-4.76,6.25-11.61,16.77-11.7,2.63-.02,7.2-5.47,7.22-8.45.02-2.83-4.75-8.11-7.4-8.1-10.62.03-13.74-6.95-16.64-11.72,2.99-5.04,8.07-10.45,6.89-12.23-2.76-4.19-8.51-6.65-14.78-11.01,1.27-1.36,3.41-4.58,6.42-6.74,22.72-16.27,30.22-46.08,17.37-69.98C138.27,6.63,108.15-5.72,80.51,2.58c-23.62,7.09-37.99,22.46-41.74,45.48-3.57,21.95,5.13,39.65,23.48,53.49,2.78,2.1,4.51,5.42,5.69,6.89-6.39,3.82-13.11,5.68-14.45,9.29-1.17,3.17,3.7,8.3,6.5,13.73-3.29,4.97-6.88,11.81-17.4,11.47-2.28-.07-6.89,5.32-6.6,7.81.36,3.21,4.5,8.53,7.14,8.6,10.83.27,14.45,6.95,16.9,11.92-3.16,5.09-7.82,9.38-6.9,11.85,1.51,4.07,6.62,6.98,12.11,12.17Z"/>
      <path class="cls-1" d="m65.24,195.28c-5.49-5.2-10.6-8.1-12.11-12.17-.91-2.47,3.74-6.76,6.9-11.85-2.45-4.97-6.08-11.64-16.9-11.92-2.64-.07-6.78-5.38-7.14-8.6-.28-2.49,4.32-7.89,6.6-7.81,10.52.34,14.11-6.51,17.4-11.47-2.8-5.43-7.67-10.56-6.5-13.73,1.34-3.61,8.06-5.47,14.45-9.29-1.18-1.47-2.91-4.79-5.69-6.89-18.35-13.84-27.05-31.55-23.48-53.49,3.75-23.03,18.12-38.39,41.74-45.48,27.64-8.3,57.77,4.06,70.92,28.52,12.85,23.9,5.34,53.71-17.37,69.98-3.01,2.16-5.15,5.38-6.42,6.74,6.27,4.36,12.02,6.82,14.78,11.01,1.18,1.78-3.9,7.19-6.89,12.23,2.91,4.78,6.03,11.75,16.64,11.72,2.65,0,7.42,5.28,7.4,8.1-.02,2.98-4.59,8.42-7.22,8.45-10.53.09-13.81,6.94-16.77,11.7,2.98,5.38,7.56,9.89,6.71,13.13-.96,3.65-6.83,6.16-11.96,10.28,1.42,33.95,12.82,66.75,36.96,95.34,3.62,4.29,7.21,7.36,14,7.61,9.74.36,11.98,7.14,6.06,16.51,10.71,12.48,11.27,25.19.77,36.12.76,5.86,3.31,11.45,1.36,14.34-2.06,3.04-8.43,4.87-12.93,4.9-52.2.33-104.41.34-156.61,0-4.8-.03-11.24-1.85-13.85-5.04-2.04-2.5.68-8.42,1.47-14.14-8.85-9.69-10.73-21.23-1.26-33.62.87-1.13.41-3.61-.2-5.2-3.25-8.45-.24-12.66,9.28-14.36,3.93-.7,8.53-2.55,11.01-5.31,25.74-28.7,37.39-62.33,38.86-96.32Z"/>
    </g>
  </g>
</svg>