<?xml version="1.0" encoding="UTF-8"?>
<svg id="Capa_2" data-name="Capa 2" xmlns="http://www.w3.org/2000/svg" viewBox="0 0 119.33 257.82">
  <defs>
    <style>
      .cls-1 {
        fill: #f7e2bf;
        stroke-width: 0px;
      }
    </style>
  </defs>
  <g id="Capa_1-2" data-name="Capa 1">
    <path class="cls-1" d="m43.72,99.67c-10.68-3.04-19.03-5.42-27.38-7.8.04-.93.07-1.85.11-2.78,5.67-4.12,11.12-8.59,17.08-12.25,4.43-2.72,4.57-4.74.38-10.56,4.12-15.82,1.73-29.01-6.17-41.62-1.24-1.98-1.66-4.45-2.46-6.69,2.66-.54,5.31-1.23,8-1.59,1.93-.26,3.93.08,5.87-.15,3.45-.41,6.88-1.05,11.38-1.76C53.26,10.63,48.33-.04,59.54,0c10.93.04,7.46,9.81,9.04,14.01,5.04,1.24,8.86,2.43,12.78,3.04,1.67.26,3.54-.97,5.32-1,2.06-.04,5.13-.19,5.94.96.99,1.4.96,4.75-.12,6.12-6.87,8.68-9.78,18.54-9.64,29.29.05,3.96,1.29,7.9,2.28,13.5-.11.13-2.4,1.69-2.5,3.39-.15,2.38.56,5.73,2.24,7.13,5.41,4.51,11.42,8.31,17.59,12.66-6.87,8.53-17,6.29-25.64,9.68-1.08,26.92-.04,53.79,9.25,79.8.53,1.49,1.12,3.29,2.29,4.19,5.86,4.5,8.67,9.74,6.54,17.3-.5,1.77,1.29,4.55,2.7,6.36,4.48,5.75,9.29,11.26,13.96,16.87,3.69,4.43,9.42,8.39,3.52,15.04-.37.41-.12,1.49.05,2.21,1.26,5.15,2.57,10.29,4.19,16.76-4.87.24-7.74.5-10.62.5-32.56.02-65.11.01-97.67-.02-10.35,0-13.85-6.29-8.7-15.46.73-1.29,2.23-3.3,1.8-3.92-5.27-7.59.68-11.81,4.83-16.63,3.71-4.31,7.38-8.64,11.02-13,1.21-1.45,3.36-3.11,3.23-4.52-1.63-17.99,15.72-29.48,16.05-47.14.36-19.2,2.88-38.36,4.45-57.46Z"/>
  </g>
</svg>