<?xml version="1.0" encoding="UTF-8"?>
<svg id="Capa_2" data-name="Capa 2" xmlns="http://www.w3.org/2000/svg" viewBox="0 0 127.63 260.29">
  <defs>
    <style>
      .cls-1 {
        fill: #fae5c7;
        stroke-width: 0px;
      }
    </style>
  </defs>
  <g id="Capa_1-2" data-name="Capa 1">
    <g>
      <path class="cls-1" d="m107.39,208.45H20.55c17.28-33.42,27.03-67.89,19.09-105.67h47.15c-9.37,38.25,2.58,72.14,20.6,105.67Z"/>
      <path class="cls-1" d="m22.63,219.49h82.41c3.66,4.97,6.32,9.17,9.59,12.84,2.36,2.65,6.25,4.11,8.12,6.97,2.43,3.7,5.85,9.22,4.62,12.23-1.51,3.69-7.09,6.42-11.48,8.02-3.62,1.33-8.07.48-12.15.48-28.58.02-57.17.01-85.75,0-2.16,0-4.71.59-6.4-.34-4.19-2.28-9.9-4.54-11.34-8.23-1.2-3.08,2.17-8.59,4.65-12.26,2.06-3.03,6.13-4.62,8.68-7.42,3.04-3.33,5.4-7.26,9.04-12.29Z"/>
      <path class="cls-1" d="m38.74,72.18c-3.02-9.28-5.81-17.92-8.65-26.54-1.26-3.81.11-5.79,3.95-6.76,20.2-5.08,40.37-4.6,60.44.47,1.45.37,3.52,3.79,3.1,5.08-2.86,8.73-6.19,17.31-9.73,25.79-.46,1.11-3.03,1.86-4.64,1.88-14.63.14-29.27.08-44.47.08Z"/>
      <path class="cls-1" d="m29.87,90.94c21.9,0,42.82-.1,63.73.2,1.6.02,3.16,2.83,4.73,4.34-1.63,1.46-3.25,4.17-4.9,4.2-19.72.29-39.45.14-59.18.19-7.33.02-4.89-4.45-4.39-8.92Z"/>
      <path class="cls-1" d="m63.6,216.74c-14.9,0-29.81.12-44.71-.13-2.07-.03-4.1-1.88-6.15-2.89,1.94-.9,3.88-2.58,5.82-2.59,30.05-.16,60.1-.17,90.15.03,2.07.01,4.12,1.94,6.18,2.98-2.2.88-4.38,2.47-6.59,2.51-14.9.22-29.81.12-44.71.12,0,0,0-.02,0-.02Z"/>
      <path class="cls-1" d="m59.82,7.8c.16-1.87.36-4.21.62-7.15,1.93-.19,3.96-.4,6.48-.65.37,2.87.69,5.39,1,7.84,2.46,4.08,12.76-3.02,10.63,7.99-3.32.16-6.61.32-10.73.52v16.56h-7.48v-16.51c-4.01-.19-7.46-.35-11.19-.53-2.15-10.39,6.7-4.78,10.67-8.07Z"/>
      <path class="cls-1" d="m63.11,82.33c8.62,0,17.25-.14,25.87.12,1.64.05,3.22,1.68,4.83,2.58-1.49,1.02-2.97,2.92-4.48,2.94-17.01.22-34.02.22-51.02.01-1.5-.02-2.98-1.93-4.47-2.97,1.61-.88,3.2-2.48,4.84-2.53,8.14-.26,16.29-.12,24.43-.12v-.03Z"/>
      <path class="cls-1" d="m88.37,79.54c-15.99,0-31.98.05-47.97-.11-1.12-.01-2.23-1.59-3.34-2.43,1.06-.7,2.11-2,3.18-2.01,15.32-.12,30.63-.13,45.95.06,1.19.01,2.35,1.68,3.53,2.58-.45.64-.89,1.28-1.34,1.91Z"/>
    </g>
  </g>
</svg>