<?xml version="1.0" encoding="UTF-8"?>
<svg id="Capa_2" data-name="Capa 2" xmlns="http://www.w3.org/2000/svg" viewBox="0 0 170.83 304">
  <defs>
    <style>
      .cls-1 {
        fill: #fff;
      }

      .cls-1, .cls-2 {
        stroke: #fff;
        stroke-miterlimit: 10;
        stroke-width: 2px;
      }
    </style>
  </defs>
  <g id="Capa_1-2" data-name="Capa 1">
    <g>
      <path class="cls-2" d="m91.82,303h-17.93c-3.14-.42-6.29-.77-9.42-1.28-13.74-2.27-27.72-3.71-41.16-7.11-18.81-4.76-22-9.8-22.02-28.57,0-2.23.23-4.5-.04-6.7-1.39-11.29,3.15-18.94,14.2-23.02,5.26-1.94,6.55-5.84,6.03-11.32-.55-5.82-.72-12.06.84-17.61,5.74-20.38,12.12-40.6,18.57-60.79,3.24-10.15-2.67-17.88-8.11-24.39-6.32-7.56-9.23-20.34-3.19-28.44,5.78-7.75,5.48-10.28-2.45-15.7-4.75-3.25-8.38-7.09-8.41-13.01-.1-16.31-.19-32.62.06-48.93.09-6.09,3.34-10.51,9.59-12.5,2.33-.74,4.58-1.74,6.87-2.62,1.38,0,2.76,0,4.14,0,4.89,3.23,4.8,8.09,4.77,13.09-.04,6.24-.17,12.55.72,18.7.32,2.18,3.53,3.96,5.42,5.93,1.41-1.78,3.63-3.38,4.1-5.36,1.58-6.72,2.83-13.55,3.64-20.4.72-6.07,3.97-8.69,9.95-8.74,11.49-.09,22.98-.12,34.47-.29,6.68-.1,10,2.82,10.82,9.4.9,7.28,2.47,14.5,4.1,21.67.31,1.38,2.17,3.28,3.44,3.37,1.42.1,3.67-1.25,4.32-2.56,1.15-2.32,1.77-5.06,1.89-7.65.27-5.8-.45-11.69.3-17.41.44-3.37,2.94-6.49,4.51-9.73,1.38,0,2.76,0,4.14,0,16.29,6.05,16.6,6.51,16.6,23.85,0,12.08-.21,24.16.08,36.23.18,7.36-2.31,12.8-8.8,16.94-7.63,4.87-7.89,8.04-2.43,15.23,4.29,5.65,5.73,20.74,1,24.72-5.14,4.33-7.12,9.82-10.3,15.06-2.98,4.91-3.2,8.85-1.67,13.75,6.25,20.05,12.55,40.08,18.48,60.22,1.36,4.62,2.34,9.73,1.79,14.42-1.31,11.05-1.71,10.98,8.64,16.43,5.69,3,10.38,6.86,10.46,13.81.09,7.37-.06,14.75-.15,22.13-.1,8.29-4.12,14.26-12.11,16.91-9.5,3.16-19.09,6.4-28.92,8.15-12.12,2.16-24.53,2.83-36.81,4.15Z"/>
      <path class="cls-1" d="m131.82,1c-1.57,3.23-4.06,6.35-4.51,9.73-.75,5.72-.03,11.61-.3,17.41-.12,2.6-.74,5.34-1.89,7.65-.65,1.3-2.9,2.66-4.32,2.56-1.26-.09-3.12-1.99-3.44-3.37-1.63-7.17-3.19-14.39-4.1-21.67-.82-6.58-4.14-9.5-10.82-9.4-11.49.17-22.98.2-34.47.29-5.98.05-9.24,2.67-9.95,8.74-.81,6.85-2.06,13.68-3.64,20.4-.47,1.99-2.68,3.59-4.1,5.36-1.89-1.96-5.1-3.75-5.42-5.93-.89-6.15-.76-12.46-.72-18.7.03-5,.12-9.86-4.77-13.09,30.81,0,61.62,0,92.43,0Z"/>
    </g>
  </g>
</svg>