<?xml version="1.0" encoding="UTF-8"?>
<svg id="Capa_2" data-name="Capa 2" xmlns="http://www.w3.org/2000/svg" viewBox="0 0 133.6 257.63">
  <defs>
    <style>
      .cls-1 {
        fill: #f2dbbd;
        stroke-width: 0px;
      }
    </style>
  </defs>
  <g id="Capa_1-2" data-name="Capa 1">
    <path class="cls-1" d="m57.33,257.63c-8.62-1.12-17.35-1.66-25.82-3.54-7.91-1.76-15.6-4.73-23.24-7.59-5.08-1.91-7.76-6.25-7.97-11.9-.26-7.04-.36-14.1-.26-21.15.08-5.41,3.56-8.5,7.7-10.92,8.47-4.94,8.19-4.92,7.25-14.85-.36-3.84.44-7.97,1.48-11.74,4.72-17.16,9.69-34.25,14.63-51.35,1.2-4.14.99-7.46-1.21-11.72-2.48-4.8-4.56-9.36-8.47-13.3-3.49-3.51-2.25-16.03.96-20.62,4.54-6.49,4.3-8.61-2.21-13.35-4.59-3.34-6.7-7.6-6.61-13.5.19-12.4,0-24.8.08-37.21C13.69,5.88,19.87-.35,28.34.2c3.67.24,5.34,2.93,5.38,6.66.06,5.15-.04,10.3.08,15.45.05,2.08.04,4.35.85,6.15.68,1.5,2.43,3.23,3.84,3.36,1.01.1,2.94-2.09,3.25-3.54,1.28-5.93,2.36-11.93,3.01-17.97.59-5.45,3.28-7.68,8.26-7.69,8.91-.02,17.82-.22,26.74-.18,6.16.02,7.77,1.74,8.75,8.34.84,5.64,1.62,11.3,2.88,16.84.37,1.65,2.24,2.92,3.43,4.36,1.39-1.58,3.18-2.95,4.05-4.8.75-1.59.56-3.72.59-5.61.07-4.96-.47-10.01.27-14.85.37-2.43,2.65-5.96,4.64-6.45,7.3-1.79,15.12,5.24,15.22,13.22.17,13.35.04,26.71.05,40.07,0,5.27-2.51,8.88-6.52,11.79-6.47,4.71-6.76,6.92-2.26,13.34,5,7.14,2.72,17.78-2.63,24.75-4.27,5.57-8.8,12.23-6.16,20.95,5.17,17.03,10.11,34.14,14.63,51.36,1.24,4.74,1.16,10.07.72,15.04-.41,4.65.5,8,4.7,9.68,9.02,3.59,12.47,10.43,11.29,20.23-.18,1.5-.02,3.05-.03,4.58,0,16.87-2.24,21.02-17.91,25.11-12.25,3.19-25,4.29-37.52,6.31-2.13.34-4.26.61-6.4.92h-14.2Z"/>
  </g>
</svg>